/* XPM */
static char *_f7b5cf22d044467f85dac155051465dZk9YkfHHpPLPi6hv[] = {
/* columns rows colors chars-per-pixel */
"64 64 5 1 ",
"  c #F77622",
". c #FEAE34",
"X c #FEE761",
"o c #0099DB",
"O c #2CE8F5",
/* pixels */
"OOOOOOOOOOOOOOOOOOOOOOOOOOOOOOOOOOOOOOOOOOOOOOOOOOOOOOOOOOOOOOOO",
"OOOOOOOOOOOOOOOOOOOOOOOOOOOOOOOOOOOOOOOOOOOOOOOOOOOOOOOOOOOOOOOO",
"OOOOOOOOOOOOOOOOOOOOOOOOOOOOOOOOOOOOOOOOOOOOOOOOOOOOOOOOOOOOOOOO",
"OOOOOOOOOOOOOOOOOOOOOOOOOOOOOOOOOOOOOOOOOOOOOOOOOOOOOOOOOOOOOOOO",
"OOOOOOOOOOOoOOOOOOOOOOOOOOOOOOOOOOOOOOOOOOooOOOOOOOOOOOOOOOOOOOO",
"OOOOOOOOOOoooOOOOOOOOOOOOOOOOOOOOOOOOOOOoooooOOOOOOOOOOOOOOOOOOO",
"OOOOOOOOooooooOOOOOOOOOOOOOOOOOOOOOOOOOoooooooOOOOOOOOOOOOOOOOOO",
"OOOOoooooooooooOOOOOOOOOOOOOOOOOOOOOOoooooOoooooOOOOOOOOOOOOOOOO",
"OooooooooOOooooooOOOOOOOOOOOOOOOOOOoooooOOOOooooooOOOOOOOOOOOOOO",
"oooooOOOOOOOOOoooooOOOOOOOOOOOOOOoooooOOOOOOOOoooooooOOOOOOOOooo",
"ooOOOOOOOOOOOOOOooooooOOOOOOOOOooooOOOOOOOOOOOOOooooooOOOOOooooo",
"OOOOOOOOOOOOOOOOOOOOOOOOOOOOOooooOOOOOOOOOOOOOOOOooooooOOOOOOOOO",
"OOOOOOOOOOOOOOOOOOOOOOOOOOOoooooOOOOOOOOOOOOOOOOOOOOoooooOOOOOOO",
"OOOOOOOOOOOOOOOOOOOOOOOOooooooOOOOOOOOOOOOOOOOOOOOOOOOooooOOOOOO",
"OOOOOOOOOOOOOOOOOOOOOooooooOOOOOOOOOOOOOOOOOOOOOOOOOOOOOoooooOOO",
"OOOOOOOOOOOOOOOOOOOOOOOOOOOOOOOOOOOOOOOOOOOOOOOOOOOOOOOOOOooooOO",
"OOOOOOOOOOOOOOOOOOOOOOOOOOOOOOOOOOOOOOOOOOOOOOOOOOOOOOOOOOOOOOOO",
"OOOOOOOOOOOOOOOOOOOOOOOOOOOOOOOOOOOOOOOOOOOOOOOOOOOOOOOOOOOOOOOO",
"OOOOOOOOOOOOOOOOOOOOOOOOOOOOOOOOOOOOOOOOOOOOOOOOOOOOOOOOOOOOOOOO",
"OOOOOOOOOOOOOOOOOOOOOOOOOOOOOOOOOOOOOOOOOOOOOOOOOOOOOOOOOOOOOOOO",
"OOOOOOOOOOOOOOOOOOOOOOOOOOOOOOOOOOOOOOOOOOOOOOOOOOOOOOOOOOOOOOOO",
"OOOOOOOOOOOOOOOOOOOOOOOOOOOOOOOOOOOOOOOOOOOOOOOOOOOOOOOOOOOOOOOO",
"OOOOOOOOOOOOOOOOOOOOOOOOOOOOOOOOOOOOOOOOOOOOOOOOOOOOOOOOOOOOOOOO",
"OOOOOOOOOOOOOOOOOOOOOOOOOOOOOOOOOOOOOOOOOOOOOOOOOOOOOOOOOOOOOOOO",
"OOOOOOOOOOOOOXXXXXOOOOOOOOOOOOOOOOOOOOOOOOOOOOOOOOOOOOOOOOOOOOOO",
"OOOOOOOOOOOXX.....XXOOOOOOOOOOOoOOOOOOOOOOOOOOOOOOOOOOOOOOOOOOOO",
"OOOOOOOOOOX.........XOOOOOOOOOooOOOOOOOOOOOOOOOOOOOOOOOOOOOOOOOO",
"OOOOOOOOOX...........XOOOOOOOooooOOOOOOOOOOOOOOOOOOOOOOOOOOOOOOO",
"OOOOOOOOX.............XOOOOOooooooOOOOOOOOOOOOOOOOOOOOOOOOOOOOOO",
"oOOOOOOX......   ......XOOOooooooooOOOOOOOOXXXOOXXXOOXXXOOOOOOoo",
"ooOOOOO......     ......XXXXXXXXXXXXXXXXXXX...XX...XX...OOOOoooo",
"ooooOOO.....  OOO  .....X........XXX....................OoooooOO",
"OOooooO.....OOOOO  ........... ....X....................oooOOOOO",
"OOOOOoo.....OOOOOO ..... ...   .....X...................oOOOOOOO",
"OOOOOOO......ooooo......                   ...  ...  ...OOOOOOOO",
"OOOOOOO ......ooo......                    ...  ...  ...OOOOOOOO",
"OOOOOOO  ..  .........  OOOOOOOOOOOOOOOOO  ...  ...  ...OOOOOOOO",
"OOOOOOOO    .........  OOOOOOOOOOOOOOOOOOO ...  ...  ...OOOOOOOO",
"OOOOOOOOO  .........  OOOOOOOOOOOOOOOOOOOO .. O .. O .. OOOOOOOO",
"OOOOOOOOOO   .....   OOOOOOOOOOOOOOOOOOOOO    O    O    OOOOOOOO",
"OOOOOOOOOOO        OOOOOOOOOOOOOOOOOOOOOOOO  OOO  OOO  OOOOOOOOO",
"OOOOOOOOOOOO      OOOOOOOOOOOOOOOOOOOOOOOOOOOOOOOOOOOOOOOOOOOOOO",
"OOOOOOOOOOOOOOOOOOOOOOOOOOOOOOOOOOOOOOOOOOOOOOOOOOOOOOOOOOOOOOOO",
"OOOOOOOOOOOOOOOOOOOOOOOOOOOOOOOOOOOOOOOOOOOOOOOOOOOOOOOOOOOOOOOO",
"OOOOOOOOOOOOOOOOOOOOOOOOOOOOOOOOOOOOOOOOOOOOOOOOOOOOOOOOOOOOOOOO",
"OOOOOOOOOOOOOOOOOOOOOOOOOOOOOOOOOOOOOOOOOOOOOOOOOOOOOOOOOOOOOOOO",
"OOOOOOOOOOOOOOOOOOOOOOOOOOOOOOOOOOOOOOOOOOoOOOOOOOOOOOOOOOOOOOOO",
"OOOOOOOOOOOoOOOOOOOOOOOOOOOOOOOOOOOOOOOOOoooOOOOOOOOOOOOOOOOOOOO",
"OOOOOOOOOOoooOOOOOOOOOOOOOOOOOOOOOOOOOOOoooooOOOOOOOOOOOOOOOOOOO",
"OOOOOOOOOoooooOOOOOOOOOOOOOOOOOOOOOOOOOoooooooOOOOOOOOOOOOOOOOOO",
"OOOOOOooooooooooOOOOOOOOOOOOOOOOOOOOooooooOooooOOOOOOOOOOOOOOOOO",
"OOOOoooooOOOooooooOOOOOOOOOOOOOOOoooooooOOOOooooOOOOOOOOOOOOOOOO",
"ooooooooOOOOOOoooooooOOOOOOOOOOoooooooOOOOOOOOoooOOOOOOOOOOOOOoo",
"oooOOOOOOOOOOOOOOOoooooooooooooooooOOOOOOOOOOOOOoooOOOOOOOOooooo",
"OOOOOOOOOOOOOOOOOOOOOoooooooooooOOOOOOOOOOOOOOOOOoooOOOOOOOOOOOO",
"OOOOOOOOOOOOOOOOOOOOOOOOooooooOOOOOOOOOOOOOOOOOOOOOooooOOOOOOOOO",
"OOOOOOOOOOOOOOOOOOOOOOOOOOOOOOOOOOOOOOOOOOOOOOOOOOOOOOOOOOOOOOOO",
"OOOOOOOOOOOOOOOOOOOOOOOOOOOOOOOOOOOOOOOOOOOOOOOOOOOOOOOOOOOOOOOO",
"OOOOOOOOOOOOOOOOOOOOOOOOOOOOOOOOOOOOOOOOOOOOOOOOOOOOOOOOOOOOOOOO",
"OOOOOOOOOOOOOOOOOOOOOOOOOOOOOOOOOOOOOOOOOOOOOOOOOOOOOOOOOOOOOOOO",
"OOOOOOOOOOOOOOOOOOOOOOOOOOOOOOOOOOOOOOOOOOOOOOOOOOOOOOOOOOOOOOOO",
"OOOOOOOOOOOOOOOOOOOOOOOOOOOOOOOOOOOOOOOOOOOOOOOOOOOOOOOOOOOOOOOO",
"OOOOOOOOOOOOOOOOOOOOOOOOOOOOOOOOOOOOOOOOOOOOOOOOOOOOOOOOOOOOOOOO",
"OOOOOOOOOOOOOOOOOOOOOOOOOOOOOOOOOOOOOOOOOOOOOOOOOOOOOOOOOOOOOOOO"
};
