/* XPM */
static char *_4ca6237a51e4f3a8d86fa7fe3a4bbc5ix3YrfbObdTVruqj[] = {
/* columns rows colors chars-per-pixel */
"64 64 10 1 ",
"  c #733E39",
". c #BE4A2F",
"X c #D77643",
"o c #F6757A",
"O c #FEAE34",
"+ c #FEE761",
"@ c #B55088",
"# c #0099DB",
"$ c #2CE8F5",
"% c white",
/* pixels */
"$$$$$$$$$$$$$$$$$$$$$$$$$$$$$$$$$$$$$$$$$$$$$$$$$$$$$$$$$$$$$$$$",
"$$$$$$$$$$$$$$$$$$$$$$$$$$$$$$$$$$$$$$$$$$$$$$$$$$$$$$$$$$$$$$$$",
"$$$$$$$$$$$$$$$$$$$$$$$$$$$$$$$$$$$$$$$$$$$$$$$$$$$$$$$$$$$$$$$$",
"$$$$$$$$$$$$$$$$$$$$$$$$$$$$$$$$$$$$$$$$$$$$$$$$$$$$$$$$$$$$$$$$",
"$$$$$$$$$$$#$$$$$$$$$$$$$$$$$$$$$$$$$$$$$$##$$$$$$$$$$$$$$$$$$$$",
"$$$$$$$$$$###$$$$$$$$$$$$$$$$$$$$$$$$$$$#####$$$$$$$$$$$$$$$$$$$",
"$$$$$$$$######$$$$$$$$$$$$$$$$$$$$$$$$$#######$$$$$$$$$$$$$$$$$$",
"$$$$###########$$$$$$$$$$$$$$$$$$$$$$#####$#####$$$$$$$$$$$$$$$$",
"$########$$######$$$$$$$$$$$$$$$$$$#####$$$$######$$$$$$$$$$$$$$",
"#####$$$$$$$$$#####$$$$$$$$$$$$$$#####$$$$$$$$#######$$$$$$$$###",
"##$$$$$$$$$$$$$$######$$$$$$$$$####$$$$$$$$$$$$oooooo#$$$$$#####",
"$$$$$$$$$$$@@@oo$$$$$$$$$$$$$####$$$$$$$$$$$$ooooooooo#$$$$$$$$$",
"$$$$$$$$$$@@@@@oo$$$$$$$$$$#####$$$$$$$$$$$$ooooooooooo##$$$$$$$",
"$$$$$$$$$$@$$@@@oo$$$$$$######$$$$$$$$$$$$$$ooo@@@@oooo###$$$$$$",
"$$$$$$$$$$$$$$@@oo$$$######$$$$$$$$$$$$$$$$oooo@@$$$$oo$#####$$$",
"$$$$$$$$$$$$$$@@oo$$$$$$$$$$$$$$$$$$$$$$$$$ooo@@$$$$$oo$$$####$$",
"$$$$$$$$$$$$@@@ooo$$$$$$$$$$$$$$$$$$$$$$$$$ooo@@$$$$$$o$$$$$$$$$",
"$$$$$$$$$$@@@@ooo$$$$$$$$$$$$$$$$$$$$$$$$$$ooo@@@$$$$$$$$$$$$$$$",
"$$$$$$$$$@@@oooo$$$$$$$$$$$$$$$$$$$$$$$$$$$oooo@@@@$$$$$$$$$$$$$",
"$$$$$$$$@@@oooo$$$$$$$$$$$$$$$$$$$$$$$$$$$$$oooo@@@@$$$$$$$$$$$$",
"$$$$$$$$@@oooo$$$$$$$$$$$$$$$$$$$$$$$$$$$$$$oooooo@@@$$$$$$$$$$$",
"$$$$$$@@@ooo$$$$$$$$$$$$$$$$$$$$$$$... X$$$$$oooooo@@@$$$$$$$$$$",
"$$$$$$@@ooo$$$$$$$$$$$$$$$$$$XXX...... XX$$$$$oooooo@@@$$$$$$$$$",
"$$$$$$@@ooo$$$$$$$$$$$$$$$$$XXXXX...... XX$$$$$$$oooo@@@$$$$$$$$",
"$$$$$$@@ooo$$$$$$$$$$$$$$.... XXX...... XX$$$$$$$$$ooo@@@$$$$$$$",
"$$$$$$@@ooo$$$$$$$$$$$$.......  XX...... XX$$$$$$$$oooo@@$$$$$$$",
"$$$$$$@@ooo$$$$$$$$$$$.......... XX..... XX$$$$$$$ooooo@@$$$$$$$",
"$$$$$$@@ooo$$$$$$$$$$XXXX....... XX...... XX$$$ooooooo@@@$$$$$$$",
"$$$$$$$@oooo$$$$$$$$XX XXX...... XXX..... XX$oooooooo@@@$$$$$$$$",
"#$$$$$$@ooooooo$$$$XX   XX...... XXX...XXXX ooooooooo@@$$$$$$$##",
"##$$$$$@@ooooooo$$$XX..  XX...... XXXXX     oooooooo@@$$$$$$####",
"####$$$$@@ooooooo$$  ... XX...... XX   XXXXXXooooo$$$$$$$#####$$",
"$$####$$$@@ooooooo$XX .. XX....XXX  XXXXX   Xooo$$$$$$#####$$$$$",
"$$$$$###$@@@@ooooooXXX . XX.XXX   XXXXX  .. Xoo$$$$######$$$$$$$",
"$$$$$$$####@@@@ooooX XX XXXX   XXXXXX  .... Xo$$$$$$$$$$$$$$$$$$",
"$$$$$$$$$$###@@@oooX  XX    XXXXXX XX...... Xo$$$$$$$$$$$$$$$$$$",
"$$$$$$$$$$$$$$$@@ooX.  XXXXXXXX    XX...... X+#$$$$$$$$$$$$$$$$$",
"$$$$$$$$$$$$$$$$@@+X..  XX     ..  XX...... X++@@@#$$$$$$$$$$$$$",
"$$$$$$$$$$$$$$$$@++X..  XX........ XX.....XXX+++@@@@$$$$$$$$$$$$",
"$$$$$$$$$$$$$$$$+++X... XX........ XX...XXXXX++++@@@@$$$$$$$$$$$",
"$$$$$$$$$$$$OOOO+++XX.. XX........ XXXXXXXOOO++++@@@@@$$$$$$$$$$",
"$$$$$$$$$$$OOOOOO++OXX. XX....... XXXXXXOOOO++++@@@@@o$$$$$$$$$$",
"$$$$$$$$$$OOOOOO++OOOXX XX.....XXXXXXOOOOO+@@@@@@@@@oo$$$$$$$$$$",
"$$$$$$$$$$OOOOO++OOOOOXXXX...XXXXXOOOOOO++@@@@@@@@@oo++$$$$$$$$$",
"$$$$$$$$$$OOOOOOOOOOOOOXXXXXXXXOOOOOOO+++@@@oooooooo++++$$$$$$$$",
"$$$$$$$$$OOOOOOOOOOOOOOOXXXXXOOOOOOOO++++@@oooooooo+++++$$$$$$$$",
"$$$$$$$$$OOOOOOOOOOOOOOOOOOOOOOOOOO++++++@ooOOO++OO+++++$$$$$$$$",
"$$$$$$$$$OOOOOOOOOOOOOOOOOOOOOOOO++++++++oooO++++++++++++$$$$$$$",
"$$$$$$$%OOOOOOOOOOOOOOOOOOOOOOO+++++++++OooooO+o+++++++++%$$$$$$",
"$$$$$$$%OOOOOOOOOOOOOOOOOOOOOO+++++++++OOOoooooo+++++++++%$$$$$$",
"$$$$$$##%OOOOOOOOOOOOOOOOOOO++++++++++OOOOOoooo++++++++%%%$$$$$$",
"$$$$####%%%%%%OOOOOOOOOOOO+++++++++++OOOO++++++++++++%%%$$$$$$$$",
"####%####%%%%%%%%OOOOOOOOOOO++++++++OOOO+++++++++%%%%%##$$$$$$##",
"###$%%%$#######%%%%%%%OOOOOOOO++++OOOOO+++++%%%%%%%####%%%$#####",
"$$$$%%%%###########%%%%%%%%%%%%%%%%%%%%%%%%%%%%#####%%%%$$$$$$$$",
"$$$$$$%%%%%##########%%%%%%%%%%%%%%%%%%%%%%%######%%%%%$$$$$$$$$",
"$$$$$$##%%%%%%%#################################%%%%$$$$$$$$$$$$",
"$$$######%%%%%%%%%%%##################%%%%%%%%%%%%$$$$$$$$$$$$$$",
"$$$$########%%%%%%%%%%%%%%%%####%%%%$$$$%%%%%%%$$$$$$$$$$$$$$$$$",
"$$$$$$#########################%%%%%%%%%%#####$$$$$$$$$$$$$$$$$$",
"$$$$$$$$###########%%%%%%%%%###############$$$$$$$$$$$$$$$$$$$$$",
"$$$$$$###############%%%%%%%%%%%%%%%%###$$$$$$$$$$$$$$$$$$$$$$$$",
"$$$$$$$$$$$$$$$$$$$$$$$$$$$$$$$$$$$$$$$$$$$$$$$$$$$$$$$$$$$$$$$$",
"$$$$$$$$$$$$$$$$$$$$$$$$$$$$$$$$$$$$$$$$$$$$$$$$$$$$$$$$$$$$$$$$"
};
