/* XPM */
static char *afd2f763d7534edcd09169adb03fb99ej69Z48KnI78qphDd[] = {
/* columns rows colors chars-per-pixel */
"64 64 12 1 ",
"  c #733E39",
". c #BE4A2F",
"X c #FF0044",
"o c #D77643",
"O c #F6757A",
"+ c #63C74D",
"@ c #FEAE34",
"# c #FEE761",
"$ c #B55088",
"% c #0099DB",
"& c #2CE8F5",
"* c white",
/* pixels */
"&&&&&&&&&&&&&&&&&&&&&&&&&&&&&&&&&&&&&&&&&&&&&&&&&&&&&&&&&&&&&&&&",
"&&&&&&&&&&&&&&&&&&&&&&&&&&&&&&&&&&&&&&&&&&&&&&&&&&&&&&&&&&&&&&&&",
"&&&&&&&&&&&&&&&&&&&&&&&&&&&&&&&&&&&&&&&&&&&&&&&&&&&&&&&&&&&&&&&&",
"&&&&&&&&&&&&&&&&&&&&&&&&&&&&&&&&&&&&&&&&&&&&&&&&&&&&&&&&&&&&&&&&",
"&&&&&&&&&&&%&&&&&&&&&&&&&&&&&&&&&&&&&&&&&&%%&&&&&&&&&&&&&&&&&&&&",
"&&&&&&&&&&%%%&&&&&&&&&&&&&&&&&&&&&&&&&&&%%%%%&&&&&&&&&&&&&&&&&&&",
"&&&&&&&&%%%%%%&&&&&&&&&&&&&&&&&&&&&&&&&%%%%%%%&&&&&&&&&&&&&&&&&&",
"&&&&%%%%%%%%%%%&&&&&&&&&&&&&&&&&&&&&&%%%%%&%%%%%&&&&&&&&&&&&&&&&",
"&%%%%%%%%&&%%%%%%&&&&&&&&&&&&&&&&&&%%%%%&&&&%%%%%%&&&&&&&&&&&&&&",
"%%%%%&&&&&&&&&%%%%%&&&&&&&&&&&&&&%%%%%&&&&&&&&%%%%%%%&&&&&&&&%%%",
"%%&&&&&&&&&&&&&&%%%%%%&&&&&&&&&%%%%&&&&&&&&&&&&OOOOOO%&&&&&%%%%%",
"&&&&&&&&&&&$$$OO&&&&&&&&&&&&&%%%%&&&&&&&&&&&&OOOOOOOOO%&&&&&&&&&",
"&&&&&&&&&&$$$$$OO&&&&&&&&&&%%%%%&&&&&&&&&&&&OOOOOOOOOOO%%&&&&&&&",
"&&&&&&&&&&$&&$$$OO&&&&&&%%%%%%&&&&&&&&&&&&&&OOO$$$$OOOO%%%&&&&&&",
"&&&&&&&&&&&&&&$$OO&&&%%%%%%&&&&&&&&&&&&&&&&OOOO$$&&&&OO&%%%%%&&&",
"&&&&&&&&&&&&&&$$OO&&&&&&&&&&ooooo.......o&&OOO$$&&&&&OO&&&%%%%&&",
"&&&&&&&&&&&&$$$OOO&&&&......   ooo...... o&OOO$$&&&&&&O&&&&&&&&&",
"&&&&&&&&&&$$$$OOO&&&&.......... ooo..... ooOOO$$$&&&&&&&&&&&&&&&",
"&&&&&&&&&$$$OOOO&&&............  oo...... oOOOO$$$$&&&&&&&&&&&&&",
"&&&&&&&&$$$OOOO&&&ooo........... oo...... ooOOOO$$$$&&&&&&&&&&&&",
"&&&&&&&&$$OOOO&&&ooooo.......... oo.ooooooooOOOOOO$$$&&&&&&&&&&&",
"&&&&&&$$$OOO&&&&&o  ooo......ooooooo       &&OOOOOO$$$&&&&&&&&&&",
"&&&&&&$$OOO&&&&&&o.  oooooooo             &&&&OOOOOO$$$&&&&&&&&&",
"&&&&&&$$OOO&&&&&&o.. oo                  &&&&&&&&OOOO$$$&&&&&&&&",
"&&&&&&$$OOO&&&&&&o. oo                  &&&&&&&&&&&OOO$$$&&&&&&&",
"&&&&&&$$OOO&&&&&&o  o            ##### &&&&&&&&&&&&OOOO$$&&&&&&&",
"&&&&&&$$OOO&&&&&&o oo         ####++###&&&&&&&&&&&OOOOO$$&&&&&&&",
"&&&&&&$$OOO&&&&&&o o     ### #@@@#+++####&&&&&&OOOOOOO$$$&&&&&&&",
"&&&&&&&$OOOO&&&&&oo    ##@++###&*#@++@*####&&OOOOOOOO$$$&&&&&&&&",
"%&&&&&&$OOOOOOO&&&o   ##@@++##&&&&###***####OOOOOOOOO$$&&&&&&&%%",
"%%&&&&&$$OOOOOOO&&&  ##*####@@&&&&@@@#*###ooOOOOOOOO$$&&&&&&%%%%",
"%%%%&&&&$$OOOOOOO&&  #***@@#@@@&&#@@###ooooooOOOOO&&&&&&&%%%%%&&",
"&&%%%%&&&$$OOOOOOO&oo##*@@XX@@######ooooo   oOOO&&&&&&%%%%%&&&&&",
"&&&&&%%%&$$$$OOOOOOooo###@XX@#####ooooo  .. oOO&&&&%%%%%%&&&&&&&",
"&&&&&&&%%%%$$$$OOOOo oo########oooooo  .... oO&&&&&&&&&&&&&&&&&&",
"&&&&&&&&&&%%%$$$OOOo  oo####oooooo oo...... oO&&&&&&&&&&&&&&&&&&",
"&&&&&&&&&&&&&&&$$OOo.  oooooooo    oo...... o#%&&&&&&&&&&&&&&&&&",
"&&&&&&&&&&&&&&&&$$#o..  oo     ..  oo...... o##$$$%&&&&&&&&&&&&&",
"&&&&&&&&&&&&&&&&$##o..  oo........ oo.....ooo###$$$$&&&&&&&&&&&&",
"&&&&&&&&&&&&&&&&###o... oo........ oo...ooooo####$$$$&&&&&&&&&&&",
"&&&&&&&&&&&&@@@@###oo.. oo........ ooooooo@@@####$$$$$&&&&&&&&&&",
"&&&&&&&&&&&@@@@@@##@oo. oo....... oooooo@@@@####$$$$$O&&&&&&&&&&",
"&&&&&&&&&&@@@@@@##@@@oo oo.....oooooo@@@@@#$$$$$$$$$OO&&&&&&&&&&",
"&&&&&&&&&&@@@@@##@@@@@oooo...ooooo@@@@@@##$$$$$$$$$OO@#&&&&&&&&&",
"&&&&&&&&&&@@@@@@@@@@@@@oooooooo@@@@@@@###$$$OOOOOOOO@@##&&&&&&&&",
"&&&&&&&&&@@@@@@@@@@@@@@@ooooo@@@@@@@@####$$OOOOOOOO@@###&&&&&&&&",
"&&&&&&&&&@@@@@@@@@@@@@@@@@@@@@@@@@@######$OO@@@@@@@#####&&&&&&&&",
"&&&&&&&&&@@@@@@@@@@@@@@@@@@@@@@@@########OOO@@@##########&&&&&&&",
"&&&&&&&*@@@@@@@@@@@@@@@@@@@@@@@#########@OOOO@#O#########*&&&&&&",
"&&&&&&&*@@@@@@@@@@@@@@@@@@@@@@#########@@@OOOOOO#########*&&&&&&",
"&&&&&&%%*@@@@@@@@@@@@@@@@@@@##########@@@@@OOOO########***&&&&&&",
"&&&&%%%%******@@@@@@@@@@@@###########@@@@############***&&&&&&&&",
"%%%%*%%%%********@@@@@@@@@@@########@@@@#########*****%%&&&&&&%%",
"%%%&***&%%%%%%%*******@@@@@@@@####@@@@@#####*******%%%%***&%%%%%",
"&&&&****%%%%%%%%%%%****************************%%%%%****&&&&&&&&",
"&&&&&&*****%%%%%%%%%%***********************%%%%%%*****&&&&&&&&&",
"&&&&&&%%*******%%%%%%%%%%%%%%%%%%%%%%%%%%%%%%%%%****&&&&&&&&&&&&",
"&&&%%%%%%***********%%%%%%%%%%%%%%%%%%************&&&&&&&&&&&&&&",
"&&&&%%%%%%%%****************%%%%****&&&&*******&&&&&&&&&&&&&&&&&",
"&&&&&&%%%%%%%%%%%%%%%%%%%%%%%%%**********%%%%%&&&&&&&&&&&&&&&&&&",
"&&&&&&&&%%%%%%%%%%%*********%%%%%%%%%%%%%%%&&&&&&&&&&&&&&&&&&&&&",
"&&&&&&%%%%%%%%%%%%%%%****************%%%&&&&&&&&&&&&&&&&&&&&&&&&",
"&&&&&&&&&&&&&&&&&&&&&&&&&&&&&&&&&&&&&&&&&&&&&&&&&&&&&&&&&&&&&&&&",
"&&&&&&&&&&&&&&&&&&&&&&&&&&&&&&&&&&&&&&&&&&&&&&&&&&&&&&&&&&&&&&&&"
};
