/* XPM */
static char *_444d1f4d1ce4cd58983f44c3674d136GYhazMLrvjNyWzkq[] = {
/* columns rows colors chars-per-pixel */
"64 64 13 1 ",
"  c #3E2731",
". c #733E39",
"X c #BE4A2F",
"o c #D77643",
"O c #FEAE34",
"+ c #0099DB",
"@ c #2AE4F4",
"# c #2BE4F4",
"$ c #2BE6F4",
"% c #2BE7F5",
"& c #2CE8F5",
"* c #FDFFFF",
"= c white",
/* pixels */
"&&&&&&&&&&&&&&&&&&&&&&&&&&&&&&&&&&&&&&&&&&&&&&&&&&&&&&&&&&&&&&&&",
"&&&&&&&&&&&&&&&&&&&&&&&&&&&&&&&&&&&&&&&&&&&&&&&&&&&&&&&&&&&&&&&&",
"&&&&&&&&&&&&&&&&&&&&&&&&&&&&&&&&&&&&&&&&&&&&&&&&&&&&&&&&&&&&&&&&",
"&&&&&&&&&&&&&&&&&&&&&&&&&&&&&&&&&&&&&&&&&&&&&&&&&&&&&&&&&&&&&&&&",
"&&&&&&&&&&&+&&&&&&&&&&&&&&&&&&&&&&&&&&&&&&++&&&&&&&&&&&&&&&&&&&&",
"&&&&&&&&&&+++&&&&&&&&&&&&&&&&&&OO   &&&&+++++&&&&&&&&&&&&&&&&&&&",
"&&&&&&&&++++++&&&&&&&&&&&&&&&&&OO   &&&+++++++&&&&&&&&&&&&&&&&&&",
"&&&&+++++++++++&&&&&&&&&&&&&&&&XX   &+++++&+++++&&&&&&&&&&&&&&&&",
"&++++++++&&++++++&&&&&&&&&&&&&&XX      +&&&&++++++&&&&&&&&&&&&&&",
"+++++&&&&&&&&&+++++&&&&&&&&&&&&XX+++   &&&&&&&+++++++&&&&&&&&+++",
"++&&&&&&&&&&&&&&++++++&&&&&&&&&XX++&&&&&&&&&&&&&++++++&&&&&+++++",
"&&&&&&&&&&&&&&&&&&&&&&&&&&&oooooooooo&&&&&&&&&&&&++++++&&&&&&&&&",
"&&&&&&&&&&&&&&&&&&&&&&&&&&&oooooooooo&&&&&&&&&&&&&&&+++++&&&&&&&",
"&&&&&&&&&&&&&&&&&&&&&&&&+            &&&&&&&&&&&&&&&&&++++&&&&&&",
"&&&&&&&&&&&&&&&&&&&&&++++           &&&&&&&&&&&&&&&&&&&&+++++&&&",
"&&&&&&&&&&&&&&&&&&&&&&&&           &&&&&&&&&&&&&&&&&&&&&&&++++&&",
"&&&&&&&&&&&&&&&&&&&&&&&&           &&&&&&&&&&&&&&&&&&&&&&&&&&&&&",
"&&&&&&&&&&&&&&&&&&&&&&&&           &&&&&&&&&&&&&&&&&&&&&&&&&&&&&",
"&&&&&&&&&&&&&&&&&&&&&&&&           &&&&&&&&&&&&&&&&&&&&&&&&&&&&&",
"&&&&&&&&&&&&&&&&&&&&&&&&           &&&&&&&&&&&&&&&&&&&&&&&&&&&&&",
"&&&&&&&&&&&&&&&&&&&&&&&&           &&&&&&&&&&&&&&&&&&&&&&&&&&&&&",
"&&&&&&&&&&&&&&&&&&&&&&&&           &&&&&&&&&&&&&&&&&&&&&&&&&&&&&",
"&&&&&&&&&&&&&&&&&&&&XX&&           &&&&&&&&&&&&XX&&&&&&&&&&&&&&&",
"&&&&&&&&&&&&&&&&&&&&XX&&            &&&&&&&&&&&XX&&&&&&&&&&&&&&&",
"&&&&&&&&&&&&&&&&&&oooooo             &&&&&&&oooooooo&&&&&&&&&&&&",
"&&&&&&&&&&&&&&&&&&oooooo&             &&&&&&oooooooo&&&&&&&&&&&&",
"&&&&&&&&&&&&&&&&        &&&          &&&&&&&      &&&&&&&&&&&&&&",
"&&&&&&&&&&&&&&&       &&&&&&oooooooo&&&&&&&     .&&&&&&&&&&&&&&&",
"&&&&&&&&&&&&&&&      X&&&&&&oooooooo&&&&&&&    XX&&&&&&&&&&&&&&&",
"+&&&&&&&&&&&&&&      X&&&&&++++..++&&&&&&&&    XX&&&&&&&&&&&&&++",
"++&&&&&&&&&&&&&      X&&&+++++&XX+++&&&&&&&    XX&&&&&&&&&&&++++",
"++++&&&&&&&&&&&      X&+++++&XXXXXX+++&&&&&&    X&&&&&&&&+++++&&",
"&&++++&&&&&&&&&      X++++&&&X&..&X+++++&&&&&     &&&&+++++&&&&&",
"&&&&&+++&&&&&&&      X+&&&&&&X&XX&X&++++++&&&&&..&&++++++&&&&&&&",
"&&&&&&&+++++++++       &&&&&XXXXXXXX&&&&++++&&&XX&&&&&&&&&&&&&&&",
"&&&&&&&&&&++++++&&    &&&&&&XXXXXXXX&&&&&&++XXXXXXXXXX&&&&&&&&&&",
"&&&&&&&&&&&&&&&&&&&&..&&&&&&&&&..&&&&&&&&&&X+X+XX&X&X&&&&&&&&&&&",
"&&&XX&&&&&&&&&&&&&&&XX&&&&&&&&&XX&&&&&&&&&X&&X+XX+X&X&&&&&&&&&&&",
"&&&XXXX&&&&&&&&&&&&&XX&&&&&&&&&XX&&&&&&&&&X&&X&XX&X&X&&&&&&&&&&&",
"&&&&XXXXXX&&&ooooo&&XX&&&&&&&&&XX&&&&&&&&ooooooooooooo&&&&&&&&&&",
"&&&&&&XXXXXXXoooooo&XX&&&&&&&&&XX&&&&&&&oooooooooooooo&&&&&&&&&&",
"&&&&&&&&XXXXX.XXoooooooo&&&&&&&XX&&&&&&ooo...........&&&&&&&&&&&",
"&&&&&&&&&&XXX.XXXXooooooo&&&&&&XX&&&&&&oo.....XXXXXXX&&&&&&&&&&&",
"&&&&&&&&&&&&XX..XXXXXXXooo&&&&&XX&&&&&ooo.XXXXXXXXXXX&&&&&&&&&&&",
"&&&&&&&&&&&&&&XX.XXXXXXXooo&&&&XX&&&&ooo.XXXXXXXXX...&&&&&&&&&&&",
"&&&&&&&&&&&&&&XXX.XXXXXXXooo&&&XX&&&ooo.XXXXXXXXX...&&&&&&&&&&&&",
"&&&&&&&&&&&&&&&XXX.XXXXXXXoooooooooooo.XXXXXXX.OOO&&&&&&&&&&&&&&",
"&&&&&&&&&&&+&&&.XXX.XXXXXXXoooooooooo.XXXXXXX.O   &++&&&&&&&&&&&",
"&&&&&&&&&&+++&&&.XXX..XXOOXXXXXXXXXXXXOOXXXX.XO   ++++&&&&&&&&&&",
"&&&&&&&&&+++++&&..XXXX.O  O....OO....O  O...XXO  ++++++&&&&&&&&&",
"&&&&&&+++++++++++++XXXXO  OXXXO  OXXXO  OXXXXX.OO+++++++++&&&&&&",
"&&&&+++++&&&++++++++++XXOO.XXXO  OXXXXOO.XX+++++++++===+++++&&&&",
"++++++++&&&&++++++==+++...X...XOO.......X+++++++++========++++++",
"+++++&&&&&&++++========+++++XXX..XXXXXX+++++=========&&&&&&+++++",
"&&&&&&&&&&++=====&&&====+++++++XXXXXX++++=========$$&&&&&&&&&&&&",
"&&&&&&&&+++++&&&&&&&&======+++++++++++++=====&&&&&&$$@$&&&&&&&&&",
"&&&&&&&&&&&&&=======&&&&=====+++++++============&&&&&&&&&&&&&&&&",
"&&&&&&&&&&&&&&&=======&&&&&============&&&&==========&&&&&&&&&&&",
"&&&&&&&&&&&&&&&&&&&&&===&&&&=========&&&&&&&&&&&&&&&%%&&&&&&&&&&",
"&&&&&&&&&&&&&&&&&&&&&&&&==&&&&&==========&&&&&&&&&&&&&&&&&&&&&&&",
"&&&&&&&&&&&&&&&&&&&&&&&&&&&&&&&&&&=========&&&&&&&&&&&&&&&&&&&&&",
"&&&&&&&&&&&&&&&&&&&&&&&&&&&&&&&&&&&&&&&&&&&&&&&&&&&&&&&&&&&&&&&&",
"&&&&&&&&&&&&&&&&&&&&&&&&&&&&&&&&&&&&&&&&&&&&&&&&&&&&&&&&&&&&&&&&",
"&&&&&&&&&&&&&&&&&&&&&&&&&&&&&&&&&&&&&&&&&&&&&&&&&&&&&&&&&&&&&&&&"
};
