/* XPM */
static char *_a6d159e6374493981afedcc2f429d6czVJFMBayoGAKDShf[] = {
/* columns rows colors chars-per-pixel */
"64 64 8 1 ",
"  c #3E2731",
". c #733E39",
"X c #BE4A2F",
"o c #D77643",
"O c #FEAE34",
"+ c #0099DB",
"@ c #2CE8F5",
"# c white",
/* pixels */
"@@@@@@@@@@@@@@@@@@@@@@@@@@@@@@@@@@@@@@@@@@@@@@@@@@@@@@@@@@@@@@@@",
"@@@@@@@@@@@@@@@@@@@@@@@@@@@@@@@@@@@@@@@@@@@@@@@@@@@@@@@@@@@@@@@@",
"@@@@@@@@@@@@@@@@@@@@@@@@@@@@@@@@@@@@@@@@@@@@@@@@@@@@@@@@@@@@@@@@",
"@@@@@@@@@@@@@@@@@@@@@@@@@@@@@@@@@@@@@@@@@@@@@@@@@@@@@@@@@@@@@@@@",
"@@@@@@@@@@@+@@@@@@@@@@@@@@@@@@@@@@@@@@@@@@++@@@@@@@@@@@@@@@@@@@@",
"@@@@@@@@@@+++@@@@@@@@@@@@@@@   OO@@@@@@@+++++@@@@@@@@@@@@@@@@@@@",
"@@@@@@@@++++++@@@@@@@@@@@@@@   OO@@@@@@+++++++@@@@@@@@@@@@@@@@@@",
"@@@@+++++++++++@@@@@@@@@@@@@   XX@@@@+++++@+++++@@@@@@@@@@@@@@@@",
"@++++++++@@++++++@@@@@@@@      XX@@+++++@@@@++++++@@@@@@@@@@@@@@",
"+++++@@@@@@@@@+++++@@@@@@   @@@XX+++++@@@@@@@@+++++++@@@@@@@@+++",
"++@@@@@@@@@@@@@@++++++@@@@@@@@@XX++@@@@@@@@@@@@@++++++@@@@@+++++",
"@@@@@@@@@@@@@@@@@@@@@@@@@@@oooooooooo@@@@@@@@@@@@++++++@@@@@@@@@",
"@@@@@@@@@@@@@@@@@@@@@@@@@@@oooooooooo@@@@@@@@@@@@@@@+++++@@@@@@@",
"@@@@@@@@@@@@@@@@@@@@@@@@+++            @@@@@@@@@@@@@@@++++@@@@@@",
"@@@@@@@@@@@@@@@@@@@@@++++++@           @@@@@@@@@@@@@@@@@+++++@@@",
"@@@@@@@@@@@@@@@@@@@@@@@@@@@@@           @@@@@@@@@@@@@@@@@@++++@@",
"@@@@@@@@@@@@@@@@@@@@@@@@@@@@@           @@@@@@@@@@@@@@@@@@@@@@@@",
"@@@@@@@@@@@@@@@@@@@@@@@@@@@@@           @@@@@@@@@@@@@@@@@@@@@@@@",
"@@@@@@@@@@@@@@@@@@@@@@@@@@@@@           @@@@@@@@@@@@@@@@@@@@@@@@",
"@@@@@@@@@@@@@@@@@@@@@@@@@@@@@           @@@@@@@@@@@@@@@@@@@@@@@@",
"@@@@@@@@@@@@@@@@@@@@@@@@@@@@@           @@@@@@@@@@@@@@@@@@@@@@@@",
"@@@@@@@@@@@@@@@@@@@@@@@@@@@@@           @@@@@@@@@@@@@@@@@@@@@@@@",
"@@@@@@@@@@@@@@@XX@@@@@@@@@@@@           @@XX@@@@@@@@@@@@@@@@@@@@",
"@@@@@@@@@@@@@@@XX@@@@@@@@@@@            @@XX@@@@@@@@@@@@@@@@@@@@",
"@@@@@@@@@@@@oooooooo@@@@@@@             oooooo@@@@@@@@@@@@@@@@@@",
"@@@@@@@@@@@@oooooooo@@@@@@             @oooooo@@@@@@@@@@@@@@@@@@",
"@@@@@@@@@@@@@@      @@@@@@@          @@@        @@@@@@@@@@@@@@@@",
"@@@@@@@@@@@@@@@.     @@@@@@@oooooooo@@@@@@       @@@@@@@@@@@@@@@",
"@@@@@@@@@@@@@@@XX    @@@@@@@oooooooo@@@@@@X      @@@@@@@@@@@@@@@",
"+@@@@@@@@@@@@@@XX    @@@@@@++++..++@@@@@@@X      @@@@@@@@@@@@@++",
"++@@@@@@@@@@@@@XX    @@@@+++++@XX+++@@@@@@X      @@@@@@@@@@@++++",
"++++@@@@@@@@@@@X    @@@+++++@XXXXXX+++@@@@X      @@@@@@@@+++++@@",
"@@++++@@@@@@@@     @@+++++@@@X@..@X+++++@@X      @@@@@+++++@@@@@",
"@@@@@+++@@@@@@@..@+++++@@@@@@X@XX@X@++++++X      @@++++++@@@@@@@",
"@@@@@@@++++++++XX+++@@@@@@@@XXXXXXXX@@@@+       @@@@@@@@@@@@@@@@",
"@@@@@@@@@@XXXXXXXXXX@@@@@@@@XXXXXXXX@@@@@@    @@@@@@@@@@@@@@@@@@",
"@@@@@@@@@@@X@X@XX@X@X@@@@@@@@@@..@@@@@@@@@..+++@@@@@@@@@@@@@@@@@",
"@@@@@@@@@@@X@X@XX@X@@X@@@@@@@@@XX@@@@@@@@@XX@@+++++@@@@@@@@XX@@@",
"@@@@@@@@@@@X@X@XX@X@@X@@@@@@@@@XX@@@@@@@@@XX@@@@@@@@@@@@@XXXX@@@",
"@@@@@@@@@@ooooooooooooo@@@@@@@@XX@@@@@@@@@XX@@ooooo@@@XXXXXX@@@@",
"@@@@@@@@@@oooooooooooooo@@@@@@@XX@@@@@@@@@XX@ooooooXXXXXXX@@@@@@",
"@@@@@@@@@@@...........ooo@@@@@@XX@@@@@@@ooooooooXX.XXXXX@@@@@@@@",
"@@@@@@@@@@@XXXXXXX.....oo@@@@@@XX@@@@@@oooooooXXXX.XXX@@@@@@@@@@",
"@@@@@@@@@@@XXXXXXXXXXX.ooo@@@@@XX@@@@@oooXXXXXXX..XX@@@@@@@@@@@@",
"@@@@@@@@@@@...XXXXXXXXX.ooo@@@@XX@@@@oooXXXXXXX.XX@@@@@@@@@@@@@@",
"@@@@@@@@@@@@...XXXXXXXXX.ooo@@@XX@@@oooXXXXXXX.XXX@@@@@@@@@@@@@@",
"@@@@@@@@@@@@@@OOO.XXXXXXX.ooooooooooooXXXXXXX.XXX@@@@@@@@@@@@@@@",
"@@@@@@@@@@@++@   O.XXXXXXX.ooooooooooXXXXXXX.XXX.@@@@@@@@@@@@@@@",
"@@@@@@@@@@++++   OX.XXXXOOXXXXXXXXXXXXOOXX..XXX.@@@@@@@@@@@@@@@@",
"@@@@@@@@@++++++  OXX...O  O....OO....O  O.XXXX..@@@@@@@@@@@@@@@@",
"@@@@@@+++++++++OO.XXXXXO  OXXXO  OXXXO  OXXXX++++@@@@@@@@@@@@@@@",
"@@@@+++++###+++++++++XX.OOXXXXO  OXXX.OOXX+++++++++@@@@@@@@@@@@@",
"++++++########+++++++++X.......OOX...X...+++##++++++@@@@@@@@@@++",
"+++@@@@@@@@#########+++++XXXXXX..XXX+++++########++++@@@@@@+++++",
"@@@@@@@@@@@@@@#########++++XXXXXX+++++++####@@@#####++@@@@@@@@@@",
"@@@@@@@@@@@@@@@@@@@#####+++++++++++++######@@@@@@@@+++++@@@@@@@@",
"@@@@@@@@@@@@@@@@############+++++++#####@@@@#######@@@@@@@@@@@@@",
"@@@@@@@@@@@##########@@@@############@@@@@#######@@@@@@@@@@@@@@@",
"@@@@@@@@@@@@@@@@@@@@@@@@@@@#########@@@@###@@@@@@@@@@@@@@@@@@@@@",
"@@@@@@@@@@@@@@@@@@@@@@@##########@@@@@##@@@@@@@@@@@@@@@@@@@@@@@@",
"@@@@@@@@@@@@@@@@@@@@@#########@@@@@@@@@@@@@@@@@@@@@@@@@@@@@@@@@@",
"@@@@@@@@@@@@@@@@@@@@@@@@@@@@@@@@@@@@@@@@@@@@@@@@@@@@@@@@@@@@@@@@",
"@@@@@@@@@@@@@@@@@@@@@@@@@@@@@@@@@@@@@@@@@@@@@@@@@@@@@@@@@@@@@@@@",
"@@@@@@@@@@@@@@@@@@@@@@@@@@@@@@@@@@@@@@@@@@@@@@@@@@@@@@@@@@@@@@@@"
};
