/* XPM */
static char *_06b26e17b4c4dc3860f008e85a9ae47C4wf97tbX6y9SnMe[] = {
/* columns rows colors chars-per-pixel */
"64 64 6 1 ",
"  c #3A4466",
". c #5A6988",
"X c #0099DB",
"o c #2CE8F5",
"O c #8B9BB4",
"+ c white",
/* pixels */
"oooooooooooooooooooooooooooooooooooooooooooooooooooooooooooooooo",
"oooooooooooooooooooooooooooooooooooooooooooooooooooooooooooooooo",
"oooooooooooooooooooooooooooooooooooooooooooooooooooooooooooooooo",
"oooooooooooooooooooooooooooooooooooooooooooooooooooooooooooooooo",
"oooooooooooooooooooooooooooooooooooooooooooooooooooooooooooooooo",
"oooooo..Oooooooooooooooooooooooooooooooooooooooooooooooooooooooo",
"oooo  ..OOOooooooooooooooooooooooooooooooooooooooooooooooooooooo",
"oooo  ..OOOOoooooooooooooooooOOooooooooooooooooooo..oooooooooooo",
"oooo  ....OOOoooooooooooooo...OOooooooooooooooooo.....oooooooooo",
"ooo    ...OOOoooooooooooo  ...OOOooooooooooooooo.....OOooooooooo",
"ooo     ..OOOOOOOOooooooo    ..OOOooooooooooooo......OOooooooooo",
"oo      ..OOOOOOOOOoooo+       .OOO+oooooooooo.......OOOoooooooo",
"o+     ....O.....OOOOooX+++++++++++oooooooooo .......OOOoooooooo",
"o++       .........OOOooXXXX+++++ooooooooooo. .... ..OOOoooooooo",
"oXX+++       .......OO+ooXXXXXXoooooooooooo  ..... ...OOOooooooo",
"oXXX++++++++++++++++++ooooXXXXooooooooooooo  ....   ..OOOOoooooo",
"ooXXXXXXX+++++++oooooooooooooooooooooooooo   .....   ..OOOOOoooo",
"ooXX+++++++XXXooooo..ooooooooooooooooooooo   ......  ...OOOOOooo",
"oooXXXX++++++ooooo..OOooooooooooo OOooooo       ...   ....OOOOoo",
"ooXXXXooooooooooo...OOOooooooooo  .OOOooo        ..     ...OOO+o",
"oooooooooooooooo.....OOOooooooo   ..OOOo+                ...O++o",
"ooooooooooooooo .....OOOOoooooo   ...OOoo++              +++++oo",
"ooooooooooooooo .....OOOOooooo   .....OOoXX++++++++++++++ooooooo",
"oooooooooooooo  ......OOOOooo+      ....+oXXXXXXX+++++++o+++++oo",
"oooooooooooooo  .......OOOOoXX++++++++++ooXXXXXXXXXX+++o+++ooooo",
"ooooooooooooo   ........OOOooXXXX+++++ooooooXXXXXXXXXooooooooooo",
"oooooooooooo   .........OOOoooXXXXXXXooooXXXXXXooooooooooooooooo",
"oooooooooooo   ........OOOOOoXXXXXoooooooooooooooooooooooooooooo",
"ooooooooooo    ........OOOOOoooooooooOOooooooooooooooooooooooooo",
"ooooooooooo    ........OOOOOOooooooo.OOOoooooooooooooooooooooooo",
"ooooooooooo    .... ...OOOOOOooooo...OOOOooooooooooooooooooooooo",
"oooooooooo    ....  ....OOOOOOoooo...OOOOooooooooooooooooooooooo",
"oooooooooo     ..   .....OOOOOOo  ...OOOOOoooooooooooooooooooooo",
"oooooooooo           ......OOOO   ....OOOOoooooooooooooooooooooo",
"ooooooooo+           .........O   ......OOoooooooooooooooooooooo",
"ooooooooo+            .........   .......OOoooooooooOOoooooooooo",
"ooooooooo+            .........    ......OOOXoooooo.OOOOoooooooo",
"ooooooooX++            ........       ..OOOO.ooooo..OOOOOooooooo",
"ooooooooXX++            ........       .OO...+ooo...OOOOOOoooooo",
"ooooooo..XX++++++++        .....         ....+oo....OOOOOOoooooo",
"oooooo.....XXXXXXXX+++       ..      ++++++++oo......OOOOOOooooo",
"oooooo......XXXXXXXXXX++++++++++++++++XXXXXXoo.........OOOOooooo",
"oooooo......OXXXXXXXXXXXX+++++++++XXXXXooooooO..........OOOooooo",
"ooooo  .....OOOOOXXXX+++XXXXXXXXXXX+++oooooooO..........OOOooooo",
"ooooo  .......OOOOOOXXXX+++++++++++oooooooooOO..........OOOooooo",
"ooooo  ........OOOOOOooooooo++++++ooooooooOOOO..........OOOOoooo",
"oooo   ........OOOOOOOooooooooooooo...OOOOOOO.....O....OOOOOoooo",
"ooo   ..........OOOOOOoooooooooooo ....OOOOOO....OO.....OOOOoooo",
"oo    .............OOOooooooooooo  .......OOO....OOO.....OOOoooo",
"oo   ......OO.......OOooooooooooo  .......OO.....OOOO.....OOoooo",
"oo    ......OO.......OOooooooooo   ........O.....OOOOO.....Ooooo",
"oo         OOOO......OOooooooooo   ...............OOOOO......ooo",
"o+         OOOOO.....OO+ooooooo    ...............OOOOOOO....ooo",
"o+          OOOOO......+oooooo         ...........OOOOOOOO...ooo",
"o++             OOO..++ooooooo          ....  .....OOOOOOOO..ooo",
"oX+++++++++++++++++++oooooooo           .      ......OOOOOOO.+oo",
"oXXXXXXX+++++++XXXXooooooooo+                   ......OOOOOO++oo",
"ooXXXXXXXXXXXXXXXoo.OOOOoooo+                    ......OOOOO+ooo",
"oooXXXXXXXXXXXXooo ..OOOOooo++                        .OOO+++ooo",
"oooooXXXXXXooooo   ..OOOOOOoo+++++++++++++++++++++++++++++++oooo",
"ooooooooooooooo     .OO...O.oooXXXXX++++++++++++++++++++++oooooo",
"oooooooooooooo+       ......+oooooXXXXXXXXXXXXXXXXXXXXXooooooooo",
"oooooooooooooooX++++++++++++oooooooooXXXXXooooXXXXXXoooooooooooo",
"ooooooooooooooooXXXXXXXooooooooooooooooooooooooooooooooooooooooo"
};
